<svg width="64" height="64" viewBox="0 0 64 64" fill="none" xmlns="http://www.w3.org/2000/svg">
<path d="M38 2.6H26C14.3 5 5 14.2 2.6 26V38C5 49.8 14.3 59 26 61.4H38C49.8 59 59 49.7 61.4 38V26C59 14.2 49.7 5 38 2.6Z" fill="white"/>
<path d="M61.179 39C61.7268 36.707 62.0023 34.3575 62 32C62 29.59 61.716 27.246 61.179 25H39V2.821C36.707 2.27324 34.3575 1.99768 32 2C29.59 2 27.246 2.284 25 2.821V25H2.821C2.27324 27.293 1.99768 29.6425 2 32C2 34.41 2.284 36.754 2.821 39H25V61.179C27.293 61.7268 29.6425 62.0023 32 62C34.41 62 36.754 61.716 39 61.179V39H61.179Z" fill="#CE1124"/>
</svg>
