<?xml version="1.0" encoding="utf-8"?>
<!-- Generator: Adobe Illustrator 26.4.1, SVG Export Plug-In . SVG Version: 6.00 Build 0)  -->
<svg version="1.1" xmlns="http://www.w3.org/2000/svg" xmlns:xlink="http://www.w3.org/1999/xlink" x="0px" y="0px"
	 viewBox="0 0 712.9 734.4" style="enable-background:new 0 0 712.9 734.4;" xml:space="preserve">
<style type="text/css">
	.st0{display:none;}
	.st1{display:inline;fill:none;stroke:#8F90E2;stroke-miterlimit:10;}
	.st2{display:inline;fill:none;}
	.st3{display:inline;fill:none;stroke:#41C5D9;stroke-width:5;stroke-miterlimit:10;}
	.st4{fill:#41C5D9;}
	.st5{fill:none;stroke:#444083;stroke-width:12;stroke-linecap:round;stroke-linejoin:round;stroke-miterlimit:10;}
	.st6{fill:none;stroke:#444083;stroke-width:12;stroke-miterlimit:10;}
	.st7{fill:none;stroke:#41C5D9;stroke-width:6;stroke-linecap:round;stroke-linejoin:round;stroke-miterlimit:10;}
	.st8{fill:#444083;}
	.st9{fill:none;stroke:#908AC1;stroke-width:7;stroke-miterlimit:10;}
	.st10{fill:none;stroke:#444083;stroke-width:11;stroke-linecap:round;stroke-linejoin:round;stroke-miterlimit:10;}
	.st11{fill:none;stroke:#444083;stroke-width:6;stroke-linecap:round;stroke-linejoin:round;stroke-miterlimit:10;}
	.st12{fill:none;stroke:#444083;stroke-width:7;stroke-linecap:round;stroke-linejoin:round;stroke-miterlimit:10;}
	.st13{fill:none;stroke:#8F90E2;stroke-width:17;stroke-miterlimit:10;}
	.st14{fill:none;stroke:#8F90E2;stroke-width:17;stroke-linecap:round;stroke-linejoin:round;stroke-miterlimit:10;}
	.st15{fill:#36C9DC;}
	.st16{fill:none;stroke:#444083;stroke-width:8;stroke-linecap:round;stroke-linejoin:round;stroke-miterlimit:10;}
	.st17{fill:none;stroke:#8F90E2;stroke-linecap:round;stroke-linejoin:round;stroke-miterlimit:10;}
	.st18{fill:#8F90E2;}
	.st19{fill:none;stroke:#8F90E2;stroke-width:8;stroke-linecap:round;stroke-linejoin:round;stroke-miterlimit:10;}
	.st20{fill:url(#SVGID_1_);}
	.st21{fill:url(#SVGID_00000085243499539148578690000013860088417276328090_);}
	.st22{fill:url(#SVGID_00000078758485158431074480000010096240581172566405_);}
	.st23{fill:url(#SVGID_00000124880650609063773180000002292094521130697362_);}
	.st24{fill:none;stroke:#8F90E2;stroke-width:6;stroke-linecap:round;stroke-miterlimit:10;}
</style>
<g id="Слой_1" class="st0">
	
		<image style="display:inline;overflow:visible;" width="1280" height="960" xlink:href="лого типо.jpg"  transform="matrix(1 0 0 1 -148.4255 -83.4043)">
	</image>
	<path class="st1" d="M364.6,659.7c-0.3,0.6-0.4,1-0.3,1.1c0.3,0.2,1.5-0.6,3.7-2.6"/>
	<path class="st2" d="M404,692.5c-2.1-0.2-5.9-0.2-10.2,1.3c-3.3,1.2-5.5,2.9-6.4,3.6c-1.8,1.5-3.4,3.2-6.8,8.8
		c-4.5,7.5-3.8,7.9-6.8,12.1c-2.8,4-5.5,6.5-7.7,8.6c-3.1,2.9-4.9,4.6-7.8,5.9c-3.1,1.4-6,1.7-7.9,1.8"/>
	<circle class="st3" cx="143.4" cy="162.6" r="7.4"/>
</g>
<g id="Слой_4">
	<polyline class="st4" points="328.9,554 318.3,566.1 304,572.7 283.1,569.8 268.6,562 253.9,546.4 238.9,510.3 232.1,481 
		232.1,474.2 268.6,470.9 291.7,471.9 321.9,485.2 335.1,503.9 339.8,528.3 339.3,539.2 286.6,500.9 277.5,496.7 269.4,503.6 
		274.7,515.2 328.9,554 	"/>
	<polygon class="st4" points="362.9,534.5 362.9,517.3 369,500.8 377.7,488.2 394.4,476.9 415.3,473 444.4,473 466,475.7 
		466.7,478.3 464.2,498.7 457.2,524.2 448.5,541.8 437.4,555.7 423.8,566.1 410.9,570.4 400.5,571.2 387.6,567.9 376.7,558.3 
		374.3,552.7 430.1,513.7 432.5,503.5 428.7,498.7 420.8,498 365.6,535.3 	"/>
	<polygon class="st4" points="299.6,297.5 277.5,283.9 227.1,279.7 171.9,304.6 151.1,323.4 152.9,330.6 176,360.5 209.3,381.3 
		261.8,401 268.3,403.7 284.7,421.5 311.2,438.8 339.9,447.7 361.4,447.7 390.5,439.5 418.4,421.5 428.7,412.6 474.6,397.6 
		529.7,363.7 559.7,325.6 521.9,294.5 462.1,274.7 414.8,284.6 403.1,314.9 409.2,383 376.5,411.2 307.4,388.9 295.7,311.5 	"/>
	<polygon class="st4" points="314.6,287 284.3,287 275.6,271.3 279.5,227.7 323.7,149.4 345.2,133.4 379.2,158.6 401.4,188.3 
		420.4,227.7 425.2,272.3 423.1,287 375.5,289 	"/>
	<path class="st4" d="M826.2,335.8"/>
	<line class="st5" x1="350.6" y1="690.8" x2="350.5" y2="445"/>
	<path class="st5" d="M350.6,445c-52.8,0-95.6-42.8-95.6-95.6c0-4.6,0.3-9.1,1-13.6h-16"/>
	<path class="st6" d="M428.7,344.9c0,43.1-34.9,78-78,78s-78-34.9-78-78c0-32.7,22.3-54.7,25-57.2c3.4-3.2,23.9-21.6,53.1-20.8
		C386.9,267.9,428.7,298.3,428.7,344.9z"/>
	<circle class="st6" cx="352.2" cy="346.8" r="42.1"/>
	<path class="st5" d="M350.5,445c52.8,0,96.5-41.5,96.5-94.4c0-4.6-0.3-9.1-1-13.6h16"/>
	<path class="st5" d="M275.8,279.7c-0.4-15.1,0.9-37.1,9.7-61.7c16-45.2,47.2-71.3,61.3-81.7"/>
	<path class="st5" d="M423.1,278.1c0.4-14.9-1-36.7-10.4-61c-17.3-44.7-50.8-70.5-66-80.8"/>
	<path class="st5" d="M295.7,289.6c-12.5-7.1-24-10.5-33.2-12.1c-60.6-10.7-109.9,38.5-117.1,46"/>
	<path class="st5" d="M145.4,323.4c2.8,4.9,6,9.8,9.6,14.6c32.9,43.7,86.2,61.3,118.3,68.8"/>
	<path class="st5" d="M406.3,291.8c12.5-7.1,24-10.5,33.2-12.1c60.6-10.7,109.9,38.5,117.1,46"/>
	<path class="st5" d="M428.8,409c32.1-7.4,85.3-25,118.3-68.8c3.7-4.9,6.8-9.8,9.6-14.6"/>
	<path class="st7" d="M232.1,475.7c0.7,8,2.2,19.4,6.1,32.4c5.9,19.8,13.2,44.4,35,56.9c4.6,2.7,20.9,12,37.5,5.4
		c10.2-4.1,15.8-12.3,18.1-16.3l-54.6-40.3"/>
	<path class="st7" d="M232.1,475.7c7.2-1.8,20.8-4.6,33.2-4.7c17.6-0.1,43.4-1.8,61.3,19c15.2,17.6,13.7,41.2,12.8,49.3l-54.6-37.9"
		/>
	<path class="st7" d="M284.7,501.3c-4.7-3.5-9.4-3.4-12.5,0.1c-3.1,3.6-2.3,8.8,2,12.3"/>
	<path class="st7" d="M469.2,475.7c-0.7,8-2.2,19.4-6.1,32.4c-5.9,19.8-13.2,44.4-35,56.9c-4.6,2.7-20.9,12-37.5,5.4
		c-10.2-4.1-15.8-12.3-18.1-16.3l54.6-40.3"/>
	<path class="st7" d="M469.2,475.7c-7.2-1.8-20.8-4.6-33.2-4.7c-17.6-0.1-43.4-1.8-61.3,19c-15.2,17.6-13.7,41.2-12.8,49.3
		l54.6-37.9"/>
	<path class="st7" d="M416.6,501.3c4.7-3.5,9.4-3.4,12.5,0.1c3.1,3.6,2.3,8.8-2,12.3"/>
	<path class="st8" d="M420.8,311.6l-20.2-25.1l-29.3-16l-39.7-1.4l-9.7,3.2l-28,19.3l-16.7,28.1l-1.6,46.5l29.6,42.9
		c0,0,26.8,11.7,27.9,11.9c1.1,0.2,32.8,0.5,32.8,0.5l28.5-12.4l28.9-31.1l5.5-31.1L420.8,311.6z M350.6,384.3
		c-18.3-3-38.8-17.5-35.7-36.3c1.1-7,2-20.3,7.9-24.6c0.6-1,7-8.5,7.7-9.4c5.3-7.1,32.9-7,40.6-2.8c7.3,4,14.7,18.2,18.9,25.8
		C403,360.9,371.2,387.8,350.6,384.3z"/>
	<line class="st5" x1="348.3" y1="263.5" x2="348.3" y2="227.7"/>
	<path class="st9" d="M6.3,308.4"/>
	<path class="st9" d="M5.1,391"/>
	<line class="st10" x1="84.8" y1="339.8" x2="10.5" y2="339.8"/>
	<polyline class="st11" points="84.8,365.1 10.5,365.1 10.5,375.3 	"/>
	<line class="st11" x1="8" y1="340" x2="8" y2="325.7"/>
	<path class="st12" d="M604.2,263.5l-33.7,8.3l17.4,46.5l29.5-2.8C600,199.3,509.1,107.1,393.5,88"/>
	<path class="st13" d="M100.2,428.3"/>
	<path class="st13" d="M352.2,620.4"/>
	<path class="st14" d="M611,396.2C598.4,477.8,549,547,480.5,586"/>
	<path class="st14" d="M100.3,427.9c-6.6-23.2-10.1-47.7-10.1-73.1c0-146.4,117.3-265.1,262-265.1c13.9,0,27.5,1.1,40.8,3.2"/>
	<circle class="st15" cx="352.2" cy="14.7" r="13.7"/>
	<circle class="st15" cx="690" cy="318.6" r="19.2"/>
	<circle class="st15" cx="109.2" cy="464.2" r="16.9"/>
	<circle class="st15" cx="132.9" cy="505.8" r="16.9"/>
	<circle class="st15" cx="164.4" cy="540.8" r="16.9"/>
	<circle class="st15" cx="200.5" cy="570.9" r="16.9"/>
	<path class="st8" d="M601.3,327.8c-15.1,0-27.4,12.3-27.4,27.4c0,15.1,12.3,27.4,27.4,27.4c15.1,0,27.4-12.3,27.4-27.4
		C628.7,340.1,616.5,327.8,601.3,327.8z M601.7,361.7c-7.9-0.3-7.6-11.9,0.2-11.9C610.8,349.9,610.4,362,601.7,361.7z"/>
	<line class="st16" x1="625.1" y1="355.2" x2="707.7" y2="355.2"/>
	<path class="st17" d="M484.8,627.8l-28.4-16.9c-4.7,0.2-40.6,1.7-64.9,17.2c-5.7,3.6-15.8,10.1-23.3,22.6c-2.2,3.6-3.6,6.8-4.4,9"
		/>
	<path class="st17" d="M363.8,659.7c-0.3,0.6-0.5,1.1-0.4,1.2c0.3,0.2,2.3-1.4,3.7-2.6"/>
	<path class="st17" d="M367.1,658.3c4.1-3.7,10.3-8.6,18.1-12.9c5.1-2.8,12.2-6.8,22-8.9c8.7-1.8,17.2-2.4,24.5-2.7
		c6.1-0.2,12.6-0.2,22.6-1.5c8.1-1,17.6-2.2,30.6-4.3"/>
	<path class="st17" d="M368,677.1c2-3.6,5-6.1,10.2-11c15.3-14.1,35.5-17.3,46.6-18.6c21.2-2.6,48.9-5.2,86.7-12.8l24.5,20.9
		c-40.8,6.8-69.9,7.7-84.1,9.6c-8.7,1.1-17.7,1.6-19.8,1.8c-0.4,0-0.7,0-1.1,0c-9,0-12,0-21.9,0.1c-13.4,0.2-17.7,1.1-19.9,1.7
		c-2.6,0.7-7,2.1-12,4.2c-2.4,1-4.3,1.9-5.8,2.7"/>
	<path class="st17" d="M368,677.1c-0.3,0.6-0.5,1.1-0.4,1.2c0.3,0.2,2.3-1.4,3.7-2.6"/>
	<path class="st17" d="M350.3,720.3c0.8,0,2.6-0.5,4-1.3c3.3-1.9,5.1-4.5,5.9-5.6c9.7-15.1,10.4-16.4,12.1-18.6
		c2-2.5,8.1-10.2,18.6-14c4.5-1.6,8.5-2.1,11.2-2.2l165.4-12.6l-9.2,22.3l-154.8,4"/>
	<path class="st17" d="M403.5,692.2c-2.1,0.1-5.8-0.1-10.1,1.5c-3.3,1.2-5.5,2.9-6.4,3.6c-1.8,1.5-3.4,3.2-6.8,8.8
		c-4.5,7.5-3.8,7.9-6.8,12.1c-2.8,4-5.5,6.5-7.7,8.6c-3.1,2.9-4.9,4.6-7.8,5.9c-3.1,1.4-6,1.7-7.9,1.8"/>
	<polygon class="st18" points="363.6,660.3 367.4,652 373.8,643 379.2,637.3 387.8,630.5 397.1,624.9 404.1,621.6 414.5,617.8 
		425.3,615 435.8,613 447.8,611.5 456.4,610.9 464.6,615.8 477.5,623.5 484.6,627.7 482.4,628.5 467.2,630.7 445.3,633 430.4,633.6 
		404.4,636.8 384.4,645.4 370.7,655.1 366.4,659 364.1,660.7 363.6,660.9 	"/>
	<polygon class="st18" points="368,677.7 369,675.4 372.6,671.4 380.1,664.5 389.7,657.8 396.9,654.3 404.9,651.5 419.4,648.2 
		431.7,646.7 442,645.5 456.2,643.7 471.5,641.6 483.8,639.7 493.4,638.1 506.3,635.7 511.5,634.7 535.8,655.5 519.5,658.2 
		494.2,660.9 475.3,662.7 465.1,663.5 444.3,665.9 432.8,666.5 413.2,667 398.2,667.2 386.9,669.2 377,672.8 371,675.7 369.4,677 	
		"/>
	<polygon class="st18" points="349.7,727.8 350.2,734.2 355.1,733.7 360.5,731.3 365.4,727.1 369.2,723.4 372.5,719.5 374.5,716.7 
		376.6,712.7 377.4,711.1 381.4,704.2 384.5,699.7 386,698.1 388.7,696.1 395.4,693.1 400.2,692.2 415,691.9 434.1,691.4 489.7,690 
		557.2,688.2 558.3,688.2 567.5,665.9 405.1,678.2 401.9,678.5 399.6,678.7 396.7,679.1 391.5,680.5 386.8,682.5 382.7,684.8 
		379.9,686.8 374.6,691.9 371.1,696.3 367.3,702.6 363.2,709.1 357.9,716.1 356,717.8 353.3,719.4 350.3,720.3 349.8,723.6 	"/>
	<path class="st17" d="M215.6,627.8l28.4-16.9c4.7,0.2,40.6,1.7,64.9,17.2c5.7,3.6,15.8,10.1,23.3,22.6c2.2,3.6,3.6,6.8,4.4,9"/>
	<path class="st17" d="M336.6,659.7c0.3,0.6,0.5,1.1,0.4,1.2c-0.3,0.2-2.3-1.4-3.7-2.6"/>
	<path class="st17" d="M333.2,658.3c-4.1-3.7-10.3-8.6-18.1-12.9c-5.1-2.8-12.2-6.8-22-8.9c-8.7-1.8-17.2-2.4-24.5-2.7
		c-6.1-0.2-12.6-0.2-22.6-1.5c-8.1-1-17.6-2.2-30.6-4.3"/>
	<path class="st17" d="M332.4,677.1c-2-3.6-5-6.1-10.2-11c-15.3-14.1-35.5-17.3-46.6-18.6c-21.2-2.6-48.9-5.2-86.7-12.8l-24.5,20.9
		c40.8,6.8,69.9,7.7,84.1,9.6c8.7,1.1,17.7,1.6,19.8,1.8c0.4,0,0.7,0,1.1,0c9,0,12,0,21.9,0.1c13.4,0.2,17.7,1.1,19.9,1.7
		c2.6,0.7,7,2.1,12,4.2c2.4,1,4.3,1.9,5.8,2.7"/>
	<path class="st17" d="M332.4,677.1c0.3,0.6,0.5,1.1,0.4,1.2c-0.3,0.2-2.3-1.4-3.7-2.6"/>
	<path class="st17" d="M350.1,720.3c-0.8,0-2.6-0.5-4-1.3c-3.3-1.9-5.1-4.5-5.9-5.6c-9.7-15.1-10.4-16.4-12.1-18.6
		c-2-2.5-8.1-10.2-18.6-14c-4.5-1.6-8.5-2.1-11.2-2.2l-165.4-12.6l9.2,22.3l154.8,4"/>
	<path class="st17" d="M296.8,692.2c2.1,0.1,5.8-0.1,10.1,1.5c3.3,1.2,5.5,2.9,6.4,3.6c1.8,1.5,3.4,3.2,6.8,8.8
		c4.5,7.5,3.8,7.9,6.8,12.1c2.8,4,5.5,6.5,7.7,8.6c3.1,2.9,4.9,4.6,7.8,5.9c3.1,1.4,6,1.7,7.9,1.8"/>
	<polygon class="st18" points="336.8,660.3 332.9,652 326.6,643 321.2,637.3 312.5,630.5 303.3,624.9 296.3,621.6 285.9,617.8 
		275.1,615 264.5,613 252.5,611.5 244,610.9 235.8,615.8 222.8,623.5 215.8,627.7 217.9,628.5 233.1,630.7 255,633 270,633.6 
		295.9,636.8 316,645.4 329.6,655.1 334,659 336.3,660.7 336.8,660.9 	"/>
	<polygon class="st18" points="332.4,677.7 331.3,675.4 327.7,671.4 320.3,664.5 310.6,657.8 303.5,654.3 295.5,651.5 280.9,648.2 
		268.7,646.7 258.4,645.5 244.1,643.7 228.8,641.6 216.6,639.7 207,638.1 194.1,635.7 188.9,634.7 164.6,655.5 180.9,658.2 
		206.2,660.9 225.1,662.7 235.2,663.5 256,665.9 267.5,666.5 287.1,667 302.2,667.2 313.5,669.2 323.3,672.8 329.3,675.7 331,677 	
		"/>
	<polygon class="st18" points="350.6,727.8 350.2,734.2 345.3,733.7 339.9,731.3 334.9,727.1 331.1,723.4 327.8,719.5 325.9,716.7 
		323.7,712.7 322.9,711.1 318.9,704.2 315.8,699.7 314.3,698.1 311.7,696.1 304.9,693.1 300.1,692.2 285.3,691.9 266.2,691.4 
		210.7,690 143.2,688.2 142,688.2 132.8,665.9 295.3,678.2 298.5,678.5 300.8,678.7 303.7,679.1 308.9,680.5 313.6,682.5 
		317.7,684.8 320.4,686.8 325.8,691.9 329.3,696.3 333.1,702.6 337.2,709.1 342.4,716.1 344.4,717.8 347,719.4 350.1,720.3 
		350.5,723.6 	"/>
	<line class="st19" x1="228.8" y1="186.4" x2="228.8" y2="220.6"/>
	<line class="st19" x1="212.3" y1="203.5" x2="245" y2="203.5"/>
	<line class="st19" x1="502" y1="418.5" x2="502" y2="452.7"/>
	<line class="st19" x1="485.5" y1="435.6" x2="518.2" y2="435.6"/>
	<path class="st14" d="M352.2,337.1"/>
	<path class="st14" d="M353.8,337.1"/>
	<g>
		<linearGradient id="SVGID_1_" gradientUnits="userSpaceOnUse" x1="528.6406" y1="485.1689" x2="669.4453" y2="485.1689">
			<stop  offset="0" style="stop-color:#FFFFFF"/>
			<stop  offset="0.4292" style="stop-color:#444083"/>
		</linearGradient>
		<path class="st20" d="M540.2,599.3c-3.5,0-6.9-1.6-9.2-4.6c-3.8-5.1-2.8-12.3,2.3-16.1c63.4-47.7,104.7-119.6,113.3-197.2
			c0.7-6.3,6.4-10.9,12.7-10.2c6.3,0.7,10.9,6.4,10.2,12.7c-4.7,42.6-18.1,83.1-39.7,120.2c-21.1,36.2-48.9,67.5-82.6,92.9
			C545,598.5,542.6,599.3,540.2,599.3z"/>
	</g>
	<g>
		
			<linearGradient id="SVGID_00000088840411043578271090000006256967543795130013_" gradientUnits="userSpaceOnUse" x1="283.8167" y1="189.1453" x2="670.4357" y2="189.1453">
			<stop  offset="0" style="stop-color:#FFFFFF"/>
			<stop  offset="0.4292" style="stop-color:#444083"/>
		</linearGradient>
		<path style="fill:url(#SVGID_00000088840411043578271090000006256967543795130013_);" d="M658.9,339.3c-6,0-11-4.6-11.5-10.7
			C636.4,179.1,508.1,62,355.4,62c-19.5,0-38.9,1.9-57.9,5.6c-6.2,1.2-12.3-2.8-13.5-9.1c-1.2-6.2,2.8-12.3,9.1-13.5
			c20.4-4,41.3-6,62.3-6c80.3,0,156.8,29.7,215.5,83.6c58.4,53.7,93.8,126.3,99.5,204.5c0.5,6.3-4.3,11.8-10.6,12.3
			C659.5,339.3,659.2,339.3,658.9,339.3z"/>
	</g>
	<g>
		
			<linearGradient id="SVGID_00000103960899780294241970000011385024432226968708_" gradientUnits="userSpaceOnUse" x1="42.8756" y1="170.3675" x2="256.5416" y2="170.3675">
			<stop  offset="0" style="stop-color:#FFFFFF"/>
			<stop  offset="0.4292" style="stop-color:#444083"/>
		</linearGradient>
		<path style="fill:url(#SVGID_00000103960899780294241970000011385024432226968708_);" d="M54.4,317c-0.6,0-1.1,0-1.7-0.1
			c-6.3-0.9-10.6-6.8-9.7-13.1c16-106,87-196.6,186.5-239.2L218.2,40c-2.7-5.8-0.1-12.6,5.6-15.3c5.8-2.7,12.6-0.1,15.3,5.6
			l16.4,35.5c1.3,2.9,1.4,6.2,0.2,9.1c-1.2,2.9-3.6,5.3-6.5,6.4c-97.8,37.4-168,123.9-183.4,225.7C64.9,312.9,60,317,54.4,317z"/>
	</g>
	<g>
		
			<linearGradient id="SVGID_00000018207383842966119050000002253440090680609690_" gradientUnits="userSpaceOnUse" x1="42.878" y1="494.778" x2="192.7668" y2="494.778">
			<stop  offset="0" style="stop-color:#FFFFFF"/>
			<stop  offset="0.4292" style="stop-color:#444083"/>
		</linearGradient>
		<path style="fill:url(#SVGID_00000018207383842966119050000002253440090680609690_);" d="M181.3,606.9c-2.2,0-4.5-0.7-6.5-2
			c-35.1-24.1-64.3-54.4-87.1-90c-23.2-36.4-38.3-76.5-44.7-119c-0.9-6.3,3.4-12.1,9.7-13.1c6.3-0.9,12.1,3.4,13.1,9.7
			c11.7,77.7,56.2,148.2,122,193.4c5.2,3.6,6.6,10.8,3,16C188.5,605.1,184.9,606.9,181.3,606.9z"/>
	</g>
	<path class="st24" d="M160.1,622.3C87.4,570.1,36.6,489.3,24.2,396.2"/>
	<path class="st24" d="M685.6,373.4c-6.7,105.7-62.8,198-145.4,254"/>
	<path class="st24" d="M377.9,20.5c148,10.6,269.1,118,300.5,259.3"/>
	<path class="st24" d="M270.3,30.2c20.6-5.3,42.1-8.7,64-10"/>
	<path class="st24" d="M23.8,311.5c13.9-114.4,85.9-210.8,185.5-259"/>
</g>
</svg>
